<svg width="175" height="172" viewBox="0 0 175 172" fill="none" xmlns="http://www.w3.org/2000/svg">
<g clip-path="url(#clip0_0_1)">
<path d="M134.242 83.3333C134.242 92.5 127.024 100 118.202 100H54.0403C45.2181 100 38 92.5 38 83.3333V16.6667C38 7.5 45.2181 0 54.0403 0H118.202C127.024 0 134.242 7.5 134.242 16.6667V83.3333Z" fill="#563D7C"/>
<path d="M64.1518 21.7323H91.4361C96.4683 21.7323 100.51 22.9251 103.545 25.327C106.58 27.729 108.105 31.3401 108.105 36.1931C108.105 39.1342 107.414 41.6506 106.03 43.7421C104.646 45.8336 102.664 47.4676 100.085 48.6114V48.7748C103.545 49.5427 106.171 51.2421 107.948 53.8728C109.725 56.5199 110.622 59.8205 110.622 63.8074C110.622 66.095 110.228 68.2355 109.442 70.2127C108.656 72.2061 107.429 73.9218 105.747 75.3597C104.064 76.7976 101.925 77.9414 99.299 78.7911C96.6728 79.6408 93.5591 80.0656 89.9421 80.0656H64.1518V21.7323ZM73.9804 46.1604H90.0208C92.3796 46.1604 94.3454 45.4741 95.9179 44.0689C97.4905 42.6636 98.2768 40.6702 98.2768 38.0558C98.2768 35.1146 97.5691 33.0395 96.1538 31.8466C94.7385 30.6538 92.6941 30.0493 90.0208 30.0493H73.9804V46.1604ZM73.9804 71.7323H91.3575C94.3454 71.7323 96.6728 70.9316 98.3083 69.314C99.9595 67.7127 100.793 65.4251 100.793 62.4839C100.793 59.5917 99.9752 57.3859 98.3083 55.8172C96.6413 54.2486 94.3454 53.497 91.3575 53.497H73.9804V71.7323Z" fill="white"/>
</g>
<path d="M11.4564 162.336C12.5604 162.576 13.4084 163.056 14.0004 163.776C14.6084 164.48 14.9124 165.392 14.9124 166.512C14.9124 167.952 14.3764 169.064 13.3044 169.848C12.2484 170.616 10.6804 171 8.60035 171H0.872353V154.2H8.12035C9.99235 154.2 11.4404 154.576 12.4644 155.328C13.5044 156.08 14.0244 157.144 14.0244 158.52C14.0244 159.448 13.7924 160.24 13.3284 160.896C12.8804 161.536 12.2564 162.016 11.4564 162.336ZM2.64835 155.664V161.76H8.00035C9.36035 161.76 10.4084 161.504 11.1444 160.992C11.8804 160.464 12.2484 159.704 12.2484 158.712C12.2484 157.72 11.8804 156.968 11.1444 156.456C10.4084 155.928 9.36035 155.664 8.00035 155.664H2.64835ZM8.57635 169.536C10.0804 169.536 11.2164 169.28 11.9844 168.768C12.7524 168.256 13.1364 167.456 13.1364 166.368C13.1364 164.272 11.6164 163.224 8.57635 163.224H2.64835V169.536H8.57635ZM29.5592 171.144C27.8952 171.144 26.3832 170.776 25.0232 170.04C23.6792 169.288 22.6232 168.264 21.8552 166.968C21.1032 165.672 20.7272 164.216 20.7272 162.6C20.7272 160.984 21.1032 159.528 21.8552 158.232C22.6232 156.936 23.6792 155.92 25.0232 155.184C26.3832 154.432 27.8952 154.056 29.5592 154.056C31.2232 154.056 32.7192 154.424 34.0472 155.16C35.3912 155.896 36.4472 156.92 37.2152 158.232C37.9832 159.528 38.3672 160.984 38.3672 162.6C38.3672 164.216 37.9832 165.68 37.2152 166.992C36.4472 168.288 35.3912 169.304 34.0472 170.04C32.7192 170.776 31.2232 171.144 29.5592 171.144ZM29.5592 169.56C30.8872 169.56 32.0872 169.264 33.1592 168.672C34.2312 168.064 35.0712 167.232 35.6792 166.176C36.2872 165.104 36.5912 163.912 36.5912 162.6C36.5912 161.288 36.2872 160.104 35.6792 159.048C35.0712 157.976 34.2312 157.144 33.1592 156.552C32.0872 155.944 30.8872 155.64 29.5592 155.64C28.2312 155.64 27.0232 155.944 25.9352 156.552C24.8632 157.144 24.0152 157.976 23.3912 159.048C22.7832 160.104 22.4792 161.288 22.4792 162.6C22.4792 163.912 22.7832 165.104 23.3912 166.176C24.0152 167.232 24.8632 168.064 25.9352 168.672C27.0232 169.264 28.2312 169.56 29.5592 169.56ZM52.9411 171.144C51.2771 171.144 49.7651 170.776 48.4051 170.04C47.0611 169.288 46.0051 168.264 45.2371 166.968C44.4851 165.672 44.1091 164.216 44.1091 162.6C44.1091 160.984 44.4851 159.528 45.2371 158.232C46.0051 156.936 47.0611 155.92 48.4051 155.184C49.7651 154.432 51.2771 154.056 52.9411 154.056C54.6051 154.056 56.1011 154.424 57.4291 155.16C58.7731 155.896 59.8291 156.92 60.5971 158.232C61.3651 159.528 61.7491 160.984 61.7491 162.6C61.7491 164.216 61.3651 165.68 60.5971 166.992C59.8291 168.288 58.7731 169.304 57.4291 170.04C56.1011 170.776 54.6051 171.144 52.9411 171.144ZM52.9411 169.56C54.2691 169.56 55.4691 169.264 56.5411 168.672C57.6131 168.064 58.4531 167.232 59.0611 166.176C59.6691 165.104 59.9731 163.912 59.9731 162.6C59.9731 161.288 59.6691 160.104 59.0611 159.048C58.4531 157.976 57.6131 157.144 56.5411 156.552C55.4691 155.944 54.2691 155.64 52.9411 155.64C51.6131 155.64 50.4051 155.944 49.3171 156.552C48.2451 157.144 47.3971 157.976 46.7731 159.048C46.1651 160.104 45.8611 161.288 45.8611 162.6C45.8611 163.912 46.1651 165.104 46.7731 166.176C47.3971 167.232 48.2451 168.064 49.3171 168.672C50.4051 169.264 51.6131 169.56 52.9411 169.56ZM72.0087 155.736H66.1047V154.2H79.6887V155.736H73.7847V171H72.0087V155.736ZM90.1493 171.144C88.9013 171.144 87.7013 170.944 86.5493 170.544C85.4133 170.144 84.5333 169.616 83.9093 168.96L84.6053 167.592C85.2133 168.2 86.0213 168.696 87.0293 169.08C88.0373 169.448 89.0773 169.632 90.1493 169.632C91.6533 169.632 92.7813 169.36 93.5333 168.816C94.2853 168.256 94.6613 167.536 94.6613 166.656C94.6613 165.984 94.4533 165.448 94.0373 165.048C93.6373 164.648 93.1413 164.344 92.5493 164.136C91.9573 163.912 91.1333 163.672 90.0773 163.416C88.8133 163.096 87.8053 162.792 87.0533 162.504C86.3013 162.2 85.6533 161.744 85.1093 161.136C84.5813 160.528 84.3173 159.704 84.3173 158.664C84.3173 157.816 84.5413 157.048 84.9893 156.36C85.4373 155.656 86.1253 155.096 87.0533 154.68C87.9813 154.264 89.1333 154.056 90.5093 154.056C91.4693 154.056 92.4053 154.192 93.3173 154.464C94.2453 154.72 95.0453 155.08 95.7173 155.544L95.1172 156.96C94.4133 156.496 93.6613 156.152 92.8613 155.928C92.0613 155.688 91.2773 155.568 90.5093 155.568C89.0373 155.568 87.9253 155.856 87.1733 156.432C86.4373 156.992 86.0693 157.72 86.0693 158.616C86.0693 159.288 86.2693 159.832 86.6693 160.248C87.0853 160.648 87.5973 160.96 88.2053 161.184C88.8293 161.392 89.6613 161.624 90.7013 161.88C91.9333 162.184 92.9253 162.488 93.6773 162.792C94.4453 163.08 95.0933 163.528 95.6213 164.136C96.1493 164.728 96.4133 165.536 96.4133 166.56C96.4133 167.408 96.1813 168.184 95.7173 168.888C95.2693 169.576 94.5733 170.128 93.6293 170.544C92.6853 170.944 91.5253 171.144 90.1493 171.144ZM106.562 155.736H100.658V154.2H114.242V155.736H108.338V171H106.562V155.736ZM131.8 171L127.96 165.6C127.528 165.648 127.08 165.672 126.616 165.672H122.104V171H120.328V154.2H126.616C128.76 154.2 130.44 154.712 131.656 155.736C132.872 156.76 133.48 158.168 133.48 159.96C133.48 161.272 133.144 162.384 132.472 163.296C131.816 164.192 130.872 164.84 129.64 165.24L133.744 171H131.8ZM126.568 164.16C128.232 164.16 129.504 163.792 130.384 163.056C131.264 162.32 131.704 161.288 131.704 159.96C131.704 158.6 131.264 157.56 130.384 156.84C129.504 156.104 128.232 155.736 126.568 155.736H122.104V164.16H126.568ZM151.457 166.512H142.097L140.081 171H138.233L145.913 154.2H147.665L155.345 171H153.473L151.457 166.512ZM150.809 165.072L146.777 156.048L142.745 165.072H150.809ZM167.661 154.2C169.805 154.2 171.485 154.712 172.701 155.736C173.917 156.76 174.525 158.168 174.525 159.96C174.525 161.752 173.917 163.16 172.701 164.184C171.485 165.192 169.805 165.696 167.661 165.696H163.149V171H161.373V154.2H167.661ZM167.613 164.136C169.277 164.136 170.549 163.776 171.429 163.056C172.309 162.32 172.749 161.288 172.749 159.96C172.749 158.6 172.309 157.56 171.429 156.84C170.549 156.104 169.277 155.736 167.613 155.736H163.149V164.136H167.613Z" fill="black"/>
<defs>
<clipPath id="clip0_0_1">
<rect width="96.242" height="100" fill="white" transform="translate(38)"/>
</clipPath>
</defs>
</svg>
