<svg width="85" height="153" viewBox="0 0 85 153" fill="none" xmlns="http://www.w3.org/2000/svg">
<path d="M0.00976562 0L7.67267 90L42.0806 100L76.4765 90.0062L84.1514 0H0.00976562Z" fill="#2196F3"/>
<path d="M67.7674 29.4311L66.7998 40.7374L63.8789 74.6311L42.0802 80.8999L42.0622 80.9061L20.2755 74.6311L18.7549 56.9061H29.4289L30.2222 66.0999L42.0682 69.4249L42.0742 69.4186L53.9382 66.0936L55.5549 50.7749L18.2441 50.8811L17.1863 40.4061L56.4504 39.9249L57.2437 28.7124L16.1345 28.8311L15.4434 18.3999H42.0802H68.717L67.7674 29.4311Z" fill="#FAFAFA"/>
<path d="M17.1349 152.144C15.4709 152.144 13.9669 151.776 12.6229 151.04C11.2949 150.304 10.2469 149.288 9.47889 147.992C8.72689 146.68 8.35089 145.216 8.35089 143.6C8.35089 141.984 8.72689 140.528 9.47889 139.232C10.2469 137.92 11.3029 136.896 12.6469 136.16C13.9909 135.424 15.4949 135.056 17.1589 135.056C18.4069 135.056 19.5589 135.264 20.6149 135.68C21.6709 136.096 22.5669 136.704 23.3029 137.504L22.1749 138.632C20.8629 137.304 19.2069 136.64 17.2069 136.64C15.8789 136.64 14.6709 136.944 13.5829 137.552C12.4949 138.16 11.6389 138.992 11.0149 140.048C10.4069 141.104 10.1029 142.288 10.1029 143.6C10.1029 144.912 10.4069 146.096 11.0149 147.152C11.6389 148.208 12.4949 149.04 13.5829 149.648C14.6709 150.256 15.8789 150.56 17.2069 150.56C19.2229 150.56 20.8789 149.888 22.1749 148.544L23.3029 149.672C22.5669 150.472 21.6629 151.088 20.5909 151.52C19.5349 151.936 18.3829 152.144 17.1349 152.144ZM34.8763 152.144C33.6283 152.144 32.4283 151.944 31.2763 151.544C30.1403 151.144 29.2603 150.616 28.6363 149.96L29.3323 148.592C29.9403 149.2 30.7483 149.696 31.7563 150.08C32.7643 150.448 33.8043 150.632 34.8763 150.632C36.3803 150.632 37.5083 150.36 38.2603 149.816C39.0123 149.256 39.3883 148.536 39.3883 147.656C39.3883 146.984 39.1803 146.448 38.7643 146.048C38.3643 145.648 37.8683 145.344 37.2763 145.136C36.6843 144.912 35.8603 144.672 34.8043 144.416C33.5403 144.096 32.5323 143.792 31.7803 143.504C31.0283 143.2 30.3803 142.744 29.8363 142.136C29.3083 141.528 29.0443 140.704 29.0443 139.664C29.0443 138.816 29.2683 138.048 29.7163 137.36C30.1643 136.656 30.8523 136.096 31.7803 135.68C32.7083 135.264 33.8603 135.056 35.2363 135.056C36.1963 135.056 37.1323 135.192 38.0443 135.464C38.9723 135.72 39.7723 136.08 40.4443 136.544L39.8443 137.96C39.1403 137.496 38.3883 137.152 37.5883 136.928C36.7883 136.688 36.0043 136.568 35.2363 136.568C33.7643 136.568 32.6523 136.856 31.9003 137.432C31.1643 137.992 30.7963 138.72 30.7963 139.616C30.7963 140.288 30.9963 140.832 31.3963 141.248C31.8123 141.648 32.3243 141.96 32.9323 142.184C33.5563 142.392 34.3883 142.624 35.4283 142.88C36.6603 143.184 37.6523 143.488 38.4043 143.792C39.1723 144.08 39.8203 144.528 40.3483 145.136C40.8763 145.728 41.1403 146.536 41.1403 147.56C41.1403 148.408 40.9083 149.184 40.4443 149.888C39.9963 150.576 39.3003 151.128 38.3563 151.544C37.4123 151.944 36.2523 152.144 34.8763 152.144ZM52.891 152.144C51.643 152.144 50.443 151.944 49.291 151.544C48.155 151.144 47.275 150.616 46.651 149.96L47.347 148.592C47.955 149.2 48.763 149.696 49.771 150.08C50.779 150.448 51.819 150.632 52.891 150.632C54.395 150.632 55.523 150.36 56.275 149.816C57.027 149.256 57.403 148.536 57.403 147.656C57.403 146.984 57.195 146.448 56.779 146.048C56.379 145.648 55.883 145.344 55.291 145.136C54.699 144.912 53.875 144.672 52.819 144.416C51.555 144.096 50.547 143.792 49.795 143.504C49.043 143.2 48.395 142.744 47.851 142.136C47.323 141.528 47.059 140.704 47.059 139.664C47.059 138.816 47.283 138.048 47.731 137.36C48.179 136.656 48.867 136.096 49.795 135.68C50.723 135.264 51.875 135.056 53.251 135.056C54.211 135.056 55.147 135.192 56.059 135.464C56.987 135.72 57.787 136.08 58.459 136.544L57.859 137.96C57.155 137.496 56.403 137.152 55.603 136.928C54.803 136.688 54.019 136.568 53.251 136.568C51.779 136.568 50.667 136.856 49.915 137.432C49.179 137.992 48.811 138.72 48.811 139.616C48.811 140.288 49.011 140.832 49.411 141.248C49.827 141.648 50.339 141.96 50.947 142.184C51.571 142.392 52.403 142.624 53.443 142.88C54.675 143.184 55.667 143.488 56.419 143.792C57.187 144.08 57.835 144.528 58.363 145.136C58.891 145.728 59.155 146.536 59.155 147.56C59.155 148.408 58.923 149.184 58.459 149.888C58.011 150.576 57.315 151.128 56.371 151.544C55.427 151.944 54.267 152.144 52.891 152.144ZM70.3102 142.4C72.0702 142.496 73.4062 142.976 74.3182 143.84C75.2462 144.688 75.7102 145.8 75.7102 147.176C75.7102 148.136 75.4782 148.992 75.0142 149.744C74.5502 150.48 73.8622 151.064 72.9502 151.496C72.0382 151.928 70.9262 152.144 69.6142 152.144C68.3982 152.144 67.2462 151.952 66.1582 151.568C65.0862 151.168 64.2222 150.64 63.5662 149.984L64.4062 148.616C64.9662 149.192 65.7102 149.664 66.6382 150.032C67.5662 150.384 68.5582 150.56 69.6142 150.56C70.9902 150.56 72.0542 150.264 72.8062 149.672C73.5582 149.064 73.9342 148.232 73.9342 147.176C73.9342 146.136 73.5582 145.32 72.8062 144.728C72.0542 144.136 70.9182 143.84 69.3982 143.84H68.1982V142.568L72.8542 136.736H64.2622V135.2H75.0622V136.424L70.3102 142.4Z" fill="black"/>
</svg>
