<svg width="93" height="171" viewBox="0 0 93 171" fill="none" xmlns="http://www.w3.org/2000/svg">
<g clip-path="url(#clip0_0_1)">
<path d="M23.3753 100C32.9632 100 40.7447 92.5335 40.7447 83.3335V66.6668H23.3753C13.7874 66.6668 6.00592 74.1335 6.00592 83.3335C6.00592 92.5335 13.7874 100 23.3753 100Z" fill="#0ACF83"/>
<path d="M6.00592 49.9999C6.00592 40.7999 13.7874 33.3332 23.3753 33.3332H40.7447V66.6665H23.3753C13.7874 66.6665 6.00592 59.1999 6.00592 49.9999Z" fill="#A259FF"/>
<path d="M6.00391 16.6667C6.00391 7.46667 13.7854 0 23.3733 0H40.7427V33.3333H23.3733C13.7854 33.3333 6.00391 25.8667 6.00391 16.6667Z" fill="#F24E1E"/>
<path d="M40.7458 0H58.1152C67.7031 0 75.4846 7.46667 75.4846 16.6667C75.4846 25.8667 67.7031 33.3333 58.1152 33.3333H40.7458V0Z" fill="#FF7262"/>
<path d="M75.4846 49.9999C75.4846 59.1999 67.7031 66.6665 58.1152 66.6665C48.5273 66.6665 40.7458 59.1999 40.7458 49.9999C40.7458 40.7999 48.5273 33.3332 58.1152 33.3332C67.7031 33.3332 75.4846 40.7999 75.4846 49.9999Z" fill="#1ABCFE"/>
</g>
<path d="M2.45518 154.736V161.336H11.1432V162.872H2.45518V170H0.679176V153.2H12.1992V154.736H2.45518ZM19.1158 153.2H20.8918V170H19.1158V153.2ZM41.4391 161.6H43.1431V168.008C42.3591 168.696 41.4311 169.224 40.3591 169.592C39.2871 169.96 38.1591 170.144 36.9751 170.144C35.2951 170.144 33.7831 169.776 32.4391 169.04C31.0951 168.304 30.0391 167.288 29.2711 165.992C28.5031 164.68 28.1191 163.216 28.1191 161.6C28.1191 159.984 28.5031 158.528 29.2711 157.232C30.0391 155.92 31.0951 154.896 32.4391 154.16C33.7831 153.424 35.3031 153.056 36.9991 153.056C38.2791 153.056 39.4551 153.264 40.5271 153.68C41.5991 154.08 42.5031 154.68 43.2391 155.48L42.1351 156.608C40.8071 155.296 39.1191 154.64 37.0711 154.64C35.7111 154.64 34.4791 154.944 33.3751 155.552C32.2871 156.144 31.4311 156.976 30.8071 158.048C30.1831 159.104 29.8711 160.288 29.8711 161.6C29.8711 162.912 30.1831 164.096 30.8071 165.152C31.4311 166.208 32.2871 167.04 33.3751 167.648C34.4631 168.256 35.6871 168.56 37.0471 168.56C38.7751 168.56 40.2391 168.128 41.4391 167.264V161.6ZM68.8667 153.2V170H67.1627V156.56L60.5627 167.864H59.7227L53.1227 156.632V170H51.4187V153.2H52.8827L60.1787 165.656L67.4027 153.2H68.8667ZM88.1257 165.512H78.7657L76.7497 170H74.9017L82.5817 153.2H84.3337L92.0137 170H90.1417L88.1257 165.512ZM87.4777 164.072L83.4457 155.048L79.4137 164.072H87.4777Z" fill="black"/>
<defs>
<clipPath id="clip0_0_1">
<rect width="69.4915" height="100" fill="white" transform="translate(6)"/>
</clipPath>
</defs>
</svg>
