<svg width="94" height="153" viewBox="0 0 94 153" fill="none" xmlns="http://www.w3.org/2000/svg">
<path d="M4.01562 0L11.6849 90L46.1215 100L80.546 90.0062L88.2273 0H4.01562Z" fill="#FF5722"/>
<path d="M71.5955 29.4316H46.1215H31.2341L32.1965 40.7379H46.1215H70.6331L67.7399 74.6379L46.1215 80.9066L46.1035 80.9129L24.4972 74.6379L22.9874 56.9066H33.574L34.362 66.1066L46.1095 69.4254L46.1215 69.4191L57.8811 66.1004L59.1082 51.7816H46.1215H22.5543L19.7031 18.4004H46.1215H72.5339L71.5955 29.4316Z" fill="#FAFAFA"/>
<path d="M14.3012 135.2V152H12.5492V144.248H2.03721V152H0.261208V135.2H2.03721V142.688H12.5492V135.2H14.3012ZM26.2978 136.736H20.3938V135.2H33.9778V136.736H28.0738V152H26.2978V136.736ZM57.5121 135.2V152H55.8081V138.56L49.2081 149.864H48.3681L41.7681 138.632V152H40.0641V135.2H41.5281L48.8241 147.656L56.0481 135.2H57.5121ZM66.2351 135.2H68.0111V150.464H77.4191V152H66.2351V135.2ZM86.545 142.088C88.977 142.088 90.745 142.528 91.849 143.408C92.969 144.272 93.529 145.488 93.529 147.056C93.529 148.032 93.297 148.904 92.833 149.672C92.385 150.44 91.705 151.048 90.793 151.496C89.881 151.928 88.761 152.144 87.433 152.144C86.233 152.144 85.089 151.952 84.001 151.568C82.929 151.168 82.065 150.64 81.409 149.984L82.249 148.616C82.809 149.192 83.545 149.664 84.457 150.032C85.369 150.384 86.353 150.56 87.409 150.56C88.801 150.56 89.873 150.248 90.625 149.624C91.393 149 91.777 148.168 91.777 147.128C91.777 145.976 91.345 145.104 90.481 144.512C89.633 143.92 88.193 143.624 86.161 143.624H82.585L83.449 135.2H92.641V136.736H84.961L84.385 142.088H86.545Z" fill="black"/>
</svg>
