<svg width="178" height="153" viewBox="0 0 178 153" fill="none" xmlns="http://www.w3.org/2000/svg">
<path d="M32 0H128.242V100H32V0Z" fill="#F7DF1E"/>
<path d="M57.3058 83.5671L64.6709 78.9358C66.0917 81.5535 67.3843 83.7682 70.4846 83.7682C73.4565 83.7682 75.3302 82.5603 75.3302 77.8619V45.9095H84.3745V77.9947C84.3745 87.7281 78.8835 92.1584 70.8724 92.1584C63.6373 92.1584 59.4374 88.2649 57.3056 83.5663" fill="black"/>
<path d="M89.2868 82.5603L96.651 78.13C98.5896 81.4195 101.109 83.8359 105.567 83.8359C109.314 83.8359 111.704 81.889 111.704 79.2039C111.704 75.9819 109.249 74.8406 105.114 72.9617L102.854 71.9541C96.3284 69.0682 91.9998 65.4435 91.9998 57.7909C91.9998 50.7427 97.168 45.3724 105.244 45.3724C110.993 45.3724 115.128 47.4535 118.1 52.8908L111.058 57.5894C109.507 54.7032 107.828 53.5622 105.244 53.5622C102.595 53.5622 100.915 55.3074 100.915 57.5894C100.915 60.4087 102.595 61.5501 106.471 63.2955L108.732 64.3024C116.42 67.726 120.748 71.2162 120.748 79.0697C120.748 87.5281 114.353 92.1593 105.761 92.1593C97.3621 92.1593 91.9353 87.9978 89.287 82.5603" fill="black"/>
<path d="M4.95796 152.144C3.99796 152.144 3.10996 151.936 2.29396 151.52C1.47796 151.104 0.813959 150.512 0.301959 149.744L1.35796 148.544C2.28596 149.92 3.49396 150.608 4.98196 150.608C7.06196 150.608 8.10196 149.376 8.10196 146.912V136.736H1.95796V135.2H9.85396V146.84C9.85396 148.6 9.43796 149.928 8.60596 150.824C7.78996 151.704 6.57396 152.144 4.95796 152.144ZM28.6149 147.512H19.2549L17.2389 152H15.3909L23.0709 135.2H24.8229L32.5029 152H30.6309L28.6149 147.512ZM27.9669 146.072L23.9349 137.048L19.9029 146.072H27.9669ZM51.632 135.2L44.192 152H42.44L35 135.2H36.92L43.352 149.792L49.832 135.2H51.632ZM67.3397 147.512H57.9797L55.9637 152H54.1157L61.7957 135.2H63.5477L71.2277 152H69.3557L67.3397 147.512ZM66.6917 146.072L62.6597 137.048L58.6277 146.072H66.6917ZM81.888 152.144C80.64 152.144 79.44 151.944 78.288 151.544C77.152 151.144 76.272 150.616 75.648 149.96L76.344 148.592C76.952 149.2 77.76 149.696 78.768 150.08C79.776 150.448 80.816 150.632 81.888 150.632C83.392 150.632 84.52 150.36 85.272 149.816C86.024 149.256 86.4 148.536 86.4 147.656C86.4 146.984 86.192 146.448 85.776 146.048C85.376 145.648 84.88 145.344 84.288 145.136C83.696 144.912 82.872 144.672 81.816 144.416C80.552 144.096 79.544 143.792 78.792 143.504C78.04 143.2 77.392 142.744 76.848 142.136C76.32 141.528 76.056 140.704 76.056 139.664C76.056 138.816 76.28 138.048 76.728 137.36C77.176 136.656 77.864 136.096 78.792 135.68C79.72 135.264 80.872 135.056 82.248 135.056C83.208 135.056 84.144 135.192 85.056 135.464C85.984 135.72 86.784 136.08 87.456 136.544L86.856 137.96C86.152 137.496 85.4 137.152 84.6 136.928C83.8 136.688 83.016 136.568 82.248 136.568C80.776 136.568 79.664 136.856 78.912 137.432C78.176 137.992 77.808 138.72 77.808 139.616C77.808 140.288 78.008 140.832 78.408 141.248C78.824 141.648 79.336 141.96 79.944 142.184C80.568 142.392 81.4 142.624 82.44 142.88C83.672 143.184 84.664 143.488 85.416 143.792C86.184 144.08 86.832 144.528 87.36 145.136C87.888 145.728 88.152 146.536 88.152 147.56C88.152 148.408 87.92 149.184 87.456 149.888C87.008 150.576 86.312 151.128 85.368 151.544C84.424 151.944 83.264 152.144 81.888 152.144ZM102.567 152.144C100.903 152.144 99.3987 151.776 98.0547 151.04C96.7267 150.304 95.6787 149.288 94.9107 147.992C94.1587 146.68 93.7827 145.216 93.7827 143.6C93.7827 141.984 94.1587 140.528 94.9107 139.232C95.6787 137.92 96.7347 136.896 98.0787 136.16C99.4227 135.424 100.927 135.056 102.591 135.056C103.839 135.056 104.991 135.264 106.047 135.68C107.103 136.096 107.999 136.704 108.735 137.504L107.607 138.632C106.295 137.304 104.639 136.64 102.639 136.64C101.311 136.64 100.103 136.944 99.0147 137.552C97.9267 138.16 97.0707 138.992 96.4467 140.048C95.8387 141.104 95.5347 142.288 95.5347 143.6C95.5347 144.912 95.8387 146.096 96.4467 147.152C97.0707 148.208 97.9267 149.04 99.0147 149.648C100.103 150.256 101.311 150.56 102.639 150.56C104.655 150.56 106.311 149.888 107.607 148.544L108.735 149.672C107.999 150.472 107.095 151.088 106.023 151.52C104.967 151.936 103.815 152.144 102.567 152.144ZM127.242 152L123.402 146.6C122.97 146.648 122.522 146.672 122.058 146.672H117.546V152H115.77V135.2H122.058C124.202 135.2 125.882 135.712 127.098 136.736C128.314 137.76 128.922 139.168 128.922 140.96C128.922 142.272 128.586 143.384 127.914 144.296C127.258 145.192 126.314 145.84 125.082 146.24L129.186 152H127.242ZM122.01 145.16C123.674 145.16 124.946 144.792 125.826 144.056C126.706 143.32 127.146 142.288 127.146 140.96C127.146 139.6 126.706 138.56 125.826 137.84C124.946 137.104 123.674 136.736 122.01 136.736H117.546V145.16H122.01ZM136.363 135.2H138.139V152H136.363V135.2ZM153.142 135.2C155.286 135.2 156.966 135.712 158.182 136.736C159.398 137.76 160.006 139.168 160.006 140.96C160.006 142.752 159.398 144.16 158.182 145.184C156.966 146.192 155.286 146.696 153.142 146.696H148.63V152H146.854V135.2H153.142ZM153.094 145.136C154.758 145.136 156.03 144.776 156.91 144.056C157.79 143.32 158.23 142.288 158.23 140.96C158.23 139.6 157.79 138.56 156.91 137.84C156.03 137.104 154.758 136.736 153.094 136.736H148.63V145.136H153.094ZM169.797 136.736H163.893V135.2H177.477V136.736H171.573V152H169.797V136.736Z" fill="black"/>
</svg>
