<svg width="128" height="153" viewBox="0 0 128 153" fill="none" xmlns="http://www.w3.org/2000/svg">
<path d="M109.974 57.4487C105.547 57.475 101.713 58.5946 98.4977 60.2615C97.3105 57.7875 96.1233 55.6258 95.9257 54.0115C95.7031 52.1365 95.431 50.9904 95.7031 48.7511C95.9749 46.5112 97.2116 43.3341 97.2116 43.0737C97.1866 42.8393 96.9393 41.6935 94.392 41.6675C91.8447 41.6414 89.6432 42.1883 89.3959 42.8914C89.1485 43.5946 88.6539 45.2091 88.3323 46.8758C87.8871 49.3237 83.2373 57.9956 80.5908 62.5529C79.7252 60.782 78.9832 59.2196 78.8345 57.9693C78.6122 56.0946 78.3399 54.9485 78.6122 52.7091C78.8842 50.4693 80.1209 47.2925 80.1209 47.0321C80.0962 46.7977 79.8488 45.6518 77.3016 45.6258C74.7538 45.5998 72.5528 46.1466 72.3055 46.8498C72.0581 47.5529 71.7861 49.2196 71.2419 50.8341C70.7223 52.4487 64.539 66.9279 62.9313 70.7039C62.1151 72.631 61.3981 74.1675 60.8785 75.2091C60.3591 76.2508 60.8537 75.2873 60.8043 75.3914C60.3591 76.2768 60.1117 76.7716 60.1117 76.7716V76.7979C59.7655 77.449 59.3945 78.0737 59.2211 78.0737C59.0974 78.0737 58.8501 76.3289 59.2705 73.9333C60.1857 68.9071 62.4117 61.0688 62.3872 60.7823C62.3872 60.6521 62.8074 59.2716 60.9524 58.5688C59.1469 57.8656 58.5041 59.0375 58.3554 59.0375C58.207 59.0375 58.0834 59.4542 58.0834 59.4542C58.0834 59.4542 60.0867 50.6263 54.2497 50.6263C50.5892 50.6263 45.5436 54.819 43.0456 58.6472C41.4626 59.5586 38.0989 61.4854 34.5373 63.543C33.177 64.3242 31.7672 65.1576 30.4316 65.9128L30.1598 65.5998C23.0861 57.6571 10.0022 52.0321 10.5463 41.355C10.7442 37.4748 12.0303 27.2404 35.6755 14.8446C55.0417 4.68832 70.5494 7.47477 73.2451 13.6727C77.0787 22.5269 64.9594 38.9852 44.8268 41.355C37.1595 42.2664 33.1278 39.1414 32.114 37.9696C31.0504 36.7456 30.902 36.6935 30.5063 36.9279C29.8632 37.2925 30.259 38.3862 30.5063 39.0373C31.0999 40.6779 33.5732 43.5946 37.7779 45.0529C41.4629 46.3289 50.466 47.0321 61.3486 42.605C73.5421 37.631 83.0644 23.8289 80.2696 12.2925C77.4252 0.547694 58.9248 -3.30647 41.4384 3.22998C31.0255 7.13623 19.7471 13.23 11.6346 21.2248C1.98864 30.7039 0.45518 38.9852 1.09824 42.4227C3.34921 54.6883 19.4008 62.6831 25.8315 68.5946C25.5099 68.7766 25.2131 68.9589 24.9411 69.1154C21.7258 70.7818 9.48281 77.5268 6.41589 84.662C2.95324 92.7349 6.96002 98.5425 9.63121 99.3237C17.8921 101.746 26.3509 97.3966 30.9265 90.2352C35.4772 83.0737 34.9333 73.7768 32.831 69.5321L32.7565 69.3758L35.2793 67.8133C36.912 66.7977 38.5196 65.8602 39.9292 65.0526C39.138 67.3182 38.5688 70.0005 38.2723 73.9068C37.926 78.4904 39.7068 84.4276 42.0565 86.7714C43.0953 87.7867 44.3319 87.813 45.0987 87.813C47.8193 87.813 49.056 85.443 50.4163 82.6047C52.0982 79.1412 53.5822 75.1307 53.5822 75.1307C53.5822 75.1307 51.7272 85.9901 56.7975 85.9901C58.6525 85.9901 60.5075 83.4641 61.3484 82.162V82.188C61.3484 82.188 61.3979 82.1099 61.4968 81.9276C61.6006 81.7661 61.6995 81.6011 61.7936 81.4331V81.381C62.5356 80.0268 64.1927 76.9279 66.666 71.7977C69.8564 65.1831 72.9235 56.9018 72.9235 56.9018C72.9235 56.9018 73.2203 58.9331 74.1355 62.2664C74.6794 64.2458 75.8665 66.4071 76.7817 68.5164C76.0397 69.6102 75.5945 70.2354 75.5945 70.2354L75.6192 70.2615C75.0259 71.0948 74.3578 71.9805 73.6655 72.8656C71.1427 76.0427 68.1253 79.6628 67.7296 80.7044C67.2596 81.9281 67.3586 82.8396 68.2737 83.569C68.9415 84.0899 70.1287 84.1938 71.3901 84.0899C73.6655 83.9333 75.2485 83.3347 76.0399 82.9698C77.2766 82.5011 78.6864 81.7979 80.0467 80.7563C82.52 78.8294 84.0288 76.0951 83.8804 72.4492C83.8062 70.444 83.1878 68.4649 82.4211 66.5899C82.6437 66.2513 82.8665 65.9125 83.0889 65.5482C86.9967 59.5323 90.0142 52.918 90.0142 52.918C90.0142 52.918 90.311 54.9492 91.2261 58.2826C91.6958 59.9753 92.6359 61.8245 93.4769 63.6474C89.8163 66.7985 87.5161 70.4443 86.7247 72.8401C85.2654 77.2672 86.4032 79.2724 88.5549 79.7412C89.5193 79.9495 90.9046 79.4808 91.9431 79.012C93.2293 78.5693 94.7875 77.8138 96.2222 76.6943C98.6956 74.7672 101.07 72.0849 100.946 68.4651C100.872 66.7985 100.452 65.1578 99.8828 63.5953C102.999 62.2412 107.03 61.4599 112.15 62.111C123.157 63.4651 125.333 70.7047 124.913 73.7255C124.493 76.7466 122.192 78.413 121.425 78.9339C120.659 79.4287 120.411 79.6112 120.486 79.9755C120.584 80.5227 120.931 80.4964 121.599 80.3925C122.514 80.236 127.386 77.9185 127.584 72.3458C127.881 65.1833 121.425 57.3709 109.974 57.4487ZM25.0895 87.5789C21.4537 91.7716 16.3339 93.3602 14.1574 92.006C11.8077 90.5737 12.7226 84.4018 17.1996 79.9487C19.9202 77.2404 23.4571 74.7404 25.782 73.2039C26.3014 72.8654 27.0929 72.3709 28.0327 71.7716C28.1811 71.6677 28.2801 71.6154 28.2801 71.6154C28.4532 71.5112 28.6511 71.381 28.8489 71.2508C30.5061 77.605 28.9231 83.1779 25.0895 87.5789ZM51.6777 68.5425C50.4163 71.7977 47.7451 80.1571 46.1375 79.6883C44.7521 79.2977 43.9115 72.9696 45.8651 66.7196C46.8545 63.5682 48.9568 59.8185 50.1935 58.3599C52.1971 56.0162 54.3734 55.2349 54.9177 56.1985C55.5608 57.4487 52.4692 66.5112 51.6777 68.5425ZM73.6161 79.5841C73.0719 79.8708 72.5773 80.0789 72.3547 79.9229C72.1815 79.8188 72.577 79.4281 72.577 79.4281C72.577 79.4281 75.3224 76.3292 76.4107 74.8969C77.029 74.0638 77.771 73.1003 78.5625 72.0063V72.3188C78.5627 76.0685 75.1495 78.5685 73.6161 79.5841ZM90.5333 75.5216C90.1376 75.2091 90.1873 74.2456 91.5227 71.2248C92.0423 70.0268 93.2293 68.0216 95.2821 66.1206C95.5295 66.9018 95.6781 67.6568 95.6531 68.3602C95.6286 73.0477 92.4628 74.7925 90.5333 75.5216Z" fill="#CF649A"/>
<path d="M35.7443 152.144C34.4963 152.144 33.2963 151.944 32.1443 151.544C31.0083 151.144 30.1283 150.616 29.5043 149.96L30.2003 148.592C30.8083 149.2 31.6163 149.696 32.6243 150.08C33.6323 150.448 34.6723 150.632 35.7443 150.632C37.2483 150.632 38.3763 150.36 39.1283 149.816C39.8803 149.256 40.2563 148.536 40.2563 147.656C40.2563 146.984 40.0483 146.448 39.6323 146.048C39.2323 145.648 38.7363 145.344 38.1443 145.136C37.5523 144.912 36.7283 144.672 35.6723 144.416C34.4083 144.096 33.4003 143.792 32.6483 143.504C31.8963 143.2 31.2483 142.744 30.7043 142.136C30.1763 141.528 29.9123 140.704 29.9123 139.664C29.9123 138.816 30.1363 138.048 30.5843 137.36C31.0323 136.656 31.7203 136.096 32.6483 135.68C33.5763 135.264 34.7283 135.056 36.1043 135.056C37.0643 135.056 38.0003 135.192 38.9123 135.464C39.8403 135.72 40.6403 136.08 41.3123 136.544L40.7123 137.96C40.0083 137.496 39.2563 137.152 38.4563 136.928C37.6563 136.688 36.8723 136.568 36.1043 136.568C34.6323 136.568 33.5203 136.856 32.7683 137.432C32.0323 137.992 31.6643 138.72 31.6643 139.616C31.6643 140.288 31.8643 140.832 32.2643 141.248C32.6803 141.648 33.1923 141.96 33.8003 142.184C34.4243 142.392 35.2563 142.624 36.2963 142.88C37.5283 143.184 38.5203 143.488 39.2723 143.792C40.0403 144.08 40.6883 144.528 41.2163 145.136C41.7443 145.728 42.0083 146.536 42.0083 147.56C42.0083 148.408 41.7763 149.184 41.3123 149.888C40.8643 150.576 40.1683 151.128 39.2243 151.544C38.2803 151.944 37.1203 152.144 35.7443 152.144ZM59.6631 147.512H50.3031L48.2871 152H46.4391L54.1191 135.2H55.8711L63.5511 152H61.6791L59.6631 147.512ZM59.0151 146.072L54.9831 137.048L50.9511 146.072H59.0151ZM74.2113 152.144C72.9633 152.144 71.7633 151.944 70.6113 151.544C69.4753 151.144 68.5953 150.616 67.9713 149.96L68.6673 148.592C69.2753 149.2 70.0833 149.696 71.0913 150.08C72.0993 150.448 73.1393 150.632 74.2113 150.632C75.7153 150.632 76.8433 150.36 77.5953 149.816C78.3473 149.256 78.7233 148.536 78.7233 147.656C78.7233 146.984 78.5153 146.448 78.0993 146.048C77.6993 145.648 77.2033 145.344 76.6113 145.136C76.0193 144.912 75.1953 144.672 74.1393 144.416C72.8753 144.096 71.8673 143.792 71.1153 143.504C70.3633 143.2 69.7153 142.744 69.1713 142.136C68.6433 141.528 68.3793 140.704 68.3793 139.664C68.3793 138.816 68.6033 138.048 69.0513 137.36C69.4993 136.656 70.1873 136.096 71.1153 135.68C72.0433 135.264 73.1953 135.056 74.5713 135.056C75.5313 135.056 76.4673 135.192 77.3793 135.464C78.3073 135.72 79.1073 136.08 79.7793 136.544L79.1793 137.96C78.4753 137.496 77.7233 137.152 76.9233 136.928C76.1233 136.688 75.3393 136.568 74.5713 136.568C73.0993 136.568 71.9873 136.856 71.2353 137.432C70.4993 137.992 70.1313 138.72 70.1313 139.616C70.1313 140.288 70.3313 140.832 70.7313 141.248C71.1473 141.648 71.6593 141.96 72.2673 142.184C72.8913 142.392 73.7233 142.624 74.7633 142.88C75.9953 143.184 76.9873 143.488 77.7393 143.792C78.5073 144.08 79.1553 144.528 79.6833 145.136C80.2113 145.728 80.4753 146.536 80.4753 147.56C80.4753 148.408 80.2433 149.184 79.7793 149.888C79.3313 150.576 78.6353 151.128 77.6913 151.544C76.7473 151.944 75.5873 152.144 74.2113 152.144ZM92.226 152.144C90.978 152.144 89.778 151.944 88.626 151.544C87.49 151.144 86.61 150.616 85.986 149.96L86.682 148.592C87.29 149.2 88.098 149.696 89.106 150.08C90.114 150.448 91.154 150.632 92.226 150.632C93.73 150.632 94.858 150.36 95.61 149.816C96.362 149.256 96.738 148.536 96.738 147.656C96.738 146.984 96.53 146.448 96.114 146.048C95.714 145.648 95.218 145.344 94.626 145.136C94.034 144.912 93.21 144.672 92.154 144.416C90.89 144.096 89.882 143.792 89.13 143.504C88.378 143.2 87.73 142.744 87.186 142.136C86.658 141.528 86.394 140.704 86.394 139.664C86.394 138.816 86.618 138.048 87.066 137.36C87.514 136.656 88.202 136.096 89.13 135.68C90.058 135.264 91.21 135.056 92.586 135.056C93.546 135.056 94.482 135.192 95.394 135.464C96.322 135.72 97.122 136.08 97.794 136.544L97.194 137.96C96.49 137.496 95.738 137.152 94.938 136.928C94.138 136.688 93.354 136.568 92.586 136.568C91.114 136.568 90.002 136.856 89.25 137.432C88.514 137.992 88.146 138.72 88.146 139.616C88.146 140.288 88.346 140.832 88.746 141.248C89.162 141.648 89.674 141.96 90.282 142.184C90.906 142.392 91.738 142.624 92.778 142.88C94.01 143.184 95.002 143.488 95.754 143.792C96.522 144.08 97.17 144.528 97.698 145.136C98.226 145.728 98.49 146.536 98.49 147.56C98.49 148.408 98.258 149.184 97.794 149.888C97.346 150.576 96.65 151.128 95.706 151.544C94.762 151.944 93.602 152.144 92.226 152.144Z" fill="black"/>
</svg>
